<?xml version="1.0" standalone="no"?>
<!DOCTYPE svg PUBLIC "-//W3C//DTD SVG 20010904//EN"
 "http://www.w3.org/TR/2001/REC-SVG-20010904/DTD/svg10.dtd">
<svg version="1.0" xmlns="http://www.w3.org/2000/svg"
 width="512.000000pt" height="512.000000pt" viewBox="0 0 512.000000 512.000000"
 preserveAspectRatio="xMidYMid meet">
<metadata>
Created by potrace 1.14, written by Peter Selinger 2001-2017
</metadata>
<g transform="translate(0.000000,512.000000) scale(0.100000,-0.100000)"
fill="#000000" stroke="none">
<path d="M2478 5104 c-90 -27 -168 -134 -168 -229 0 -147 136 -271 278 -251
135 18 236 147 217 275 -15 99 -82 180 -173 207 -56 17 -94 17 -154 -2z"/>
<path d="M2410 4484 c-121 -12 -307 -50 -415 -85 -131 -43 -312 -126 -415
-191 -493 -310 -812 -826 -865 -1400 l-7 -78 -42 0 c-67 0 -143 -27 -188 -68
-134 -120 -111 -332 45 -418 l52 -29 1985 0 1985 0 41 22 c165 88 192 307 52
427 -46 40 -119 66 -184 66 l-42 0 -11 98 c-44 355 -167 664 -369 929 -282
368 -703 626 -1152 702 -121 21 -371 34 -470 25z m261 -204 c222 -16 397 -62
596 -155 491 -232 848 -712 922 -1240 6 -44 14 -95 17 -112 l5 -33 -1650 0
-1650 0 6 58 c30 329 186 684 409 931 158 175 304 286 509 386 199 98 384 149
595 164 58 5 107 9 110 9 3 1 62 -3 131 -8z"/>
<path d="M2131 3909 c-137 -27 -305 -106 -421 -198 -199 -159 -340 -424 -357
-673 l-6 -78 190 0 190 0 7 83 c26 301 159 580 381 796 45 45 77 81 71 80 -6
-1 -31 -5 -55 -10z"/>
<path d="M1441 2179 c-85 -26 -152 -104 -167 -196 -10 -67 17 -140 73 -195 26
-25 314 -265 638 -533 l590 -487 323 -158 c177 -87 322 -161 322 -165 0 -3 -7
-19 -15 -35 -14 -27 -14 -30 2 -39 191 -106 668 -369 669 -368 17 20 543 1012
539 1016 -3 3 -158 90 -343 193 l-337 187 -14 -29 -14 -29 -42 29 c-50 34 -92
92 -109 152 -7 23 -23 140 -35 258 -27 254 -32 280 -72 324 -48 55 -102 76
-195 76 -66 0 -89 -5 -132 -26 -63 -31 -78 -50 -177 -229 -121 -220 -161 -249
-285 -211 -25 8 -281 116 -570 241 -542 235 -575 247 -649 224z m599 -407
c289 -126 547 -235 575 -242 27 -8 79 -14 115 -14 161 -1 245 68 380 314 76
138 89 155 118 164 21 6 40 5 55 -1 22 -10 24 -24 51 -253 17 -149 34 -262 46
-292 39 -104 105 -187 193 -246 21 -14 37 -30 35 -36 -7 -28 -291 -546 -299
-546 -5 0 -149 70 -320 156 l-312 155 -601 496 c-330 272 -605 502 -610 510
-12 21 9 63 32 63 10 0 254 -103 542 -228z m1989 -828 c58 -48 47 -135 -20
-170 -89 -46 -184 57 -135 145 30 54 106 67 155 25z"/>
</g>
</svg>
